<?xml version="1.0" encoding="UTF-8" standalone="no"?>
<!DOCTYPE svg PUBLIC "-//W3C//DTD SVG 1.1//EN" "http://www.w3.org/Graphics/SVG/1.1/DTD/svg11.dtd">
<svg width="100%" height="100%" viewBox="0 0 1200 630" version="1.1" xmlns="http://www.w3.org/2000/svg" xmlns:xlink="http://www.w3.org/1999/xlink" xml:space="preserve" xmlns:serif="http://www.serif.com/" style="fill-rule:evenodd;clip-rule:evenodd;">
    <rect x="0" y="0" width="1200" height="630" style="fill:rgb(12,51,90);"/>
    <g>
        <g transform="matrix(0.834893,0,0,0.834893,111.256413,395.733329)">
            <text x="0px" y="0px" style="font-family:'AppleSymbols', 'Apple Symbols';font-size:289.956px;fill:rgb(211,228,255);">䷼</text>
        </g>
    </g>
    <g transform="matrix(0.834893,0,0,0.834893,-79.617686,52.008669)">
        <path d="M520,200L520,430" style="fill:none;fill-rule:nonzero;stroke:rgb(211,228,255);stroke-opacity:0.4;stroke-width:1.5px;"/>
    </g>
    <g>
        <g transform="matrix(0.834893,0,0,0.834893,-79.617686,52.008669)">
            <g>
                <g transform="matrix(1,0,0,1,580,253.443)">
                    <text x="0px" y="0px" style="font-family:'Helvetica-Bold', 'Helvetica';font-weight:700;font-size:13px;fill:rgb(148,180,226);">O</text>
                </g>
                <g>
                    <g transform="matrix(1,0,0,1,590.762,253.443)">
                        <text x="0px" y="0px" style="font-family:'Helvetica-Bold', 'Helvetica';font-weight:700;font-size:13px;fill:rgb(148,180,226);">P</text>
                    </g>
                    <g transform="matrix(1,0,0,1,600.083,253.443)">
                        <g>
                            <text x="0px" y="0px" style="font-family:'Helvetica-Bold', 'Helvetica';font-weight:700;font-size:13px;fill:rgb(148,180,226);">E</text>
                            <g transform="matrix(1,0,0,1,9.321,0)">
                                <text x="0px" y="0px" style="font-family:'Helvetica-Bold', 'Helvetica';font-weight:700;font-size:13px;fill:rgb(148,180,226);">N<tspan x="10.038px 14.3px 23.621px 34.127px 44.165px 54.203px 64.241px 74.28px 84.318px " y="0px 0px 0px 0px 0px 0px 0px 0px 0px "> STANDARD</tspan></text>
                            </g>
                        </g>
                    </g>
                </g>
            </g>
        </g>
        <g transform="matrix(0.834893,0,0,0.834893,-79.617686,52.008669)">
            <g>
                <g transform="matrix(1,0,0,1,576.868,338.818)">
                    <g>
                        <text x="0px" y="0px" style="font-family:'Helvetica-Bold', 'Helvetica';font-weight:700;font-size:76px;fill:rgb(248,249,255);">AI-DECLARA</text>
                        <g transform="matrix(1,0,0,1,467.244,0)">
                            <text x="0px" y="0px" style="font-family:'Helvetica-Bold', 'Helvetica';font-weight:700;font-size:76px;fill:rgb(248,249,255);">TION.md</text>
                        </g>
                    </g>
                </g>
            </g>
        </g>
        <g transform="matrix(0.834893,0,0,0.834893,-79.617686,52.008669)">
            <g>
                <g transform="matrix(1,0,0,1,578.869,381.333)">
                    <text x="0px" y="0px" style="font-family:'Helvetica';font-size:22px;fill:rgb(148,180,226);">Declare</text>
                </g>
                <g transform="matrix(1,0,0,1,659.586,381.333)">
                    <text x="0px" y="0px" style="font-family:'Helvetica';font-size:22px;fill:rgb(148,180,226);">AI usage in your projects.</text>
                </g>
            </g>
        </g>
    </g>
</svg>
