<?xml version="1.0" encoding="UTF-8" standalone="no"?>
<!DOCTYPE svg PUBLIC "-//W3C//DTD SVG 1.1//EN" "http://www.w3.org/Graphics/SVG/1.1/DTD/svg11.dtd">
<svg width="100%" height="100%" viewBox="0 0 1200 630" version="1.1" xmlns="http://www.w3.org/2000/svg" xmlns:xlink="http://www.w3.org/1999/xlink" xml:space="preserve" xmlns:serif="http://www.serif.com/" style="fill-rule:evenodd;clip-rule:evenodd;">
    <rect x="0" y="0" width="1200" height="630" style="fill:rgb(12,51,90);"/>
    <g>
        <g transform="matrix(1,0,0,1,14.60342,411.699)">
            <text x="0px" y="0px" style="font-family:'AppleSymbols', 'Apple Symbols';font-size:289.956px;fill:rgb(211,228,255);">䷼</text>
        </g>
    </g>
    <g transform="matrix(1,0,0,1,-214.01758,0)">
        <path d="M520,200L520,430" style="fill:none;fill-rule:nonzero;stroke:rgb(211,228,255);stroke-opacity:0.4;stroke-width:1.5px;"/>
    </g>
    <g>
        <g transform="matrix(1,0,0,1,-214.01758,0)">
            <g>
                <g transform="matrix(1,0,0,1,580,253.443)">
                    <text x="0px" y="0px" style="font-family:'Helvetica-Bold', 'Helvetica';font-weight:700;font-size:13px;fill:rgb(148,180,226);">O</text>
                </g>
                <g>
                    <g transform="matrix(1,0,0,1,590.762,253.443)">
                        <text x="0px" y="0px" style="font-family:'Helvetica-Bold', 'Helvetica';font-weight:700;font-size:13px;fill:rgb(148,180,226);">P</text>
                    </g>
                    <g transform="matrix(1,0,0,1,600.083,253.443)">
                        <text x="0px" y="0px" style="font-family:'Helvetica-Bold', 'Helvetica';font-weight:700;font-size:13px;fill:rgb(148,180,226);">E<tspan x="9.321px 19.359px 23.621px 32.942px 42.49px 52.528px 62.566px 72.604px 82.643px 92.681px " y="0px 0px 0px 0px 0px 0px 0px 0px 0px 0px ">N STANDARD</tspan></text>
                    </g>
                </g>
            </g>
        </g>
        <g transform="matrix(1,0,0,1,-214.01758,0)">
            <g>
                <g transform="matrix(1,0,0,1,576.868,338.818)">
                    <g transform="matrix(76,0,0,76,783.898438,0)">
                    </g>
                    <text x="0px" y="0px" style="font-family:'Helvetica-Bold', 'Helvetica';font-weight:700;font-size:76px;fill:rgb(248,249,255);">AI-DECLARA<tspan x="467.244px 513.668px " y="0px 0px ">TI</tspan>ON.md</text>
                </g>
            </g>
        </g>
        <g transform="matrix(1,0,0,1,-214.01758,0)">
            <g>
                <g transform="matrix(1,0,0,1,578.869,381.333)">
                    <text x="0px" y="0px" style="font-family:'Helvetica';font-size:22px;fill:rgb(148,180,226);">Declare</text>
                </g>
                <g transform="matrix(1,0,0,1,659.586,381.333)">
                    <text x="0px" y="0px" style="font-family:'Helvetica';font-size:22px;fill:rgb(148,180,226);">AI usage in your projects.</text>
                </g>
            </g>
        </g>
    </g>
</svg>
