<?xml version="1.0" encoding="UTF-8" standalone="no"?><!DOCTYPE svg PUBLIC "-//W3C//DTD SVG 1.1//EN" "http://www.w3.org/Graphics/SVG/1.1/DTD/svg11.dtd"><svg width="100%" height="100%" viewBox="0 0 1200 630" version="1.1" xmlns="http://www.w3.org/2000/svg" xmlns:xlink="http://www.w3.org/1999/xlink" xml:space="preserve" xmlns:serif="http://www.serif.com/" style="fill-rule:evenodd;clip-rule:evenodd;"><rect x="0" y="0" width="1200" height="630" style="fill:#0c335a;"/><g><text x="228.621px" y="411.699px" style="font-family:'AppleSymbols', 'Apple Symbols';font-size:289.956px;fill:#d3e4ff;">䷼</text></g><path d="M520,200l0,230" style="fill:none;fill-rule:nonzero;stroke:#d3e4ff;stroke-opacity:0.4;stroke-width:1.5px;"/><g><g><g><text x="580px" y="253.443px" style="font-family:'Helvetica-Bold', 'Helvetica';font-weight:700;font-size:13px;fill:#94b4e2;">O</text><text x="590.762px" y="253.443px" style="font-family:'Helvetica-Bold', 'Helvetica';font-weight:700;font-size:13px;fill:#94b4e2;">P<tspan x="600.083px 609.404px 619.442px 623.704px 633.025px 641.615px 651.653px 661.691px 671.729px 681.768px 691.806px " y="253.443px 253.443px 253.443px 253.443px 253.443px 253.443px 253.443px 253.443px 253.443px 253.443px 253.443px ">EN STANDARD</tspan></text></g></g><g><g><text x="576.868px" y="338.818px" style="font-family:'Helvetica-Bold', 'Helvetica';font-weight:700;font-size:84px;fill:#f8f9ff;">C</text><text x="635.01px" y="338.818px" style="font-family:'Helvetica-Bold', 'Helvetica';font-weight:700;font-size:84px;fill:#f8f9ff;">A<tspan x="693.152px 751.294px 809.436px 872.254px 930.396px 951.214px 1023.384px " y="338.818px 338.818px 338.818px 338.818px 338.818px 338.818px 338.818px ">NDOR.md</tspan></text></g></g><g><g><text x="578.869px" y="381.333px" style="font-family:'Helvetica';font-size:22px;fill:#94b4e2;">Declare</text><text x="659.586px" y="381.333px" style="font-family:'Helvetica';font-size:22px;fill:#94b4e2;">AI usage in your projects.</text></g></g></g></svg>